<?xml version="1.0" encoding="utf-8"?>
<!-- Generator: Adobe Illustrator 25.0.0, SVG Export Plug-In . SVG Version: 6.00 Build 0)  -->
<svg version="1.1" id="圖層_1" xmlns="http://www.w3.org/2000/svg" xmlns:xlink="http://www.w3.org/1999/xlink" x="0px" y="0px"
	 viewBox="0 0 257.2 237.8" style="enable-background:new 0 0 257.2 237.8;" xml:space="preserve">
<style type="text/css">
	.st0{fill:#030303;}
	.st1{fill:#FDFDFD;}
	.st2{fill:#F9AD14;}
	.st3{fill:#BDBDBD;}
	.st4{fill:#E52424;}
	.st5{fill:#020202;}
	.st6{fill:#FEFEFE;}
</style>
<g>
	<path class="st0" d="M245.2,149.2c-1.2,0.3-0.9,1.4-1.1,2.2c-3.6,14.6-14.6,23.9-29.7,25.1c-12,0.9-23.3-1.7-34.2-7.4
		c-2.3,9.6-5.1,18.8-9.5,27.6c-8.5,16.9-20.5,30.5-36.8,40.4c-1.8,1.1-3,1.1-4.7,0c-24.4-15-38.7-37.2-45.4-64.6
		c-0.2-0.8-0.4-1.5-0.5-2.3c-0.1-0.2-0.2-0.4-0.4-0.9c-6.8,3.5-14.1,5.9-21.7,7.1c-17.9,2.9-33.9-4.3-40.1-18.8
		c-5.6-13-2.2-25.2,5-36.5c9.9-15.5,24.7-24.6,41.6-30.8c7.7-2.8,15.6-4.8,23.7-6c1.7-0.2,2.4-0.7,2.5-2.6
		c0.5-9.8,4.2-18.2,11.1-25.2c1.3-1.3,1.3-2.1,0.1-3.4c-3.9-4.6-8.3-8.6-13.5-11.6c-5.5-3.2-5.7-8.8-0.3-12.3
		c0.2-0.1,0.3-0.5,0.4-0.7c1.8,0,3.5,0,5.3,0c7.8,5,15.1,10.7,20.6,18.2c0.9,1.2,1.8,0.8,2.9,0.5c7.4-2.2,14.8-2.2,22.2,0
		c1.1,0.3,1.9,0.7,2.9-0.5c5.5-7.6,12.7-13.2,20.6-18.2c1.8,0,3.5,0,5.3,0c-0.2,0.6,0.3,0.7,0.6,0.9c5.2,4.1,4.9,8.9-0.8,12.2
		c-5.1,3-9.4,6.9-13.2,11.4c-1.1,1.3-1.3,2.1,0,3.4c7,7,10.6,15.6,11.2,25.5c0.1,1.9,1,2,2.5,2.3c8.1,1.2,16,3.1,23.7,6
		c18.4,6.8,34.1,16.9,44,34.6c2.8,5,3.8,10.6,5.8,15.9C245.2,143.5,245.2,146.4,245.2,149.2z M140.6,165.4
		c9.1-0.9,18.1-2.4,27.3-5.4c-4-3.7-7.2-7.5-9.9-11.7c-0.8-1.3-2-1-3.3-0.7c-15.3,2.8-30.7,3.4-46.1,0.5c-1-0.2-2.4-0.8-3.1,0.2
		c-3,4.1-6.1,8.1-10.1,11.9c8,2.7,15.6,4.9,23.5,5.2C126.1,166.2,133.4,166.2,140.6,165.4z M46,161.8c7.9,2.2,15.6,0.8,23-1.7
		c15.2-5,24.3-16.6,31.5-30c6.1-11.3,11.2-23.3,18.7-33.8c0.1-0.2,0.2-0.5,0.3-0.7c-0.2,0-0.4,0-0.5-0.1c-1.3,0.1-2.6,0.1-3.9,0.2
		c-3.6-1.2-7,0.1-10.5,0.4c-17.1,1.5-33.6,5.4-48.4,14.5c-10.7,6.6-19.6,14.8-23.1,27.5C29.8,149.9,35.5,160.1,46,161.8z
		 M148.1,95.7c-1.3-0.1-2.6-0.1-3.9-0.2c-0.2,0-0.4,0-0.5,0c0.1,0.2,0.2,0.5,0.3,0.7c4,5.7,7.5,11.7,10.6,17.9
		c5.6,11.4,10.8,23.1,19.6,32.4c11.5,12.3,25.5,18.1,42.6,15.2c7.4-1.2,12.7-6.4,14-13.6c1.7-9.9-2.3-18.2-8.7-25.1
		C202.1,101.7,175.9,96.6,148.1,95.7z M127,192.7c9.5,0,16.8-1.1,24.1-1.8c7-0.6,10.5-3.9,11.8-10.4c0.2-1.3,1.6-2.8,0.3-4
		c-1.1-1.1-2.7-0.4-4.1-0.1c-17,3.5-34.1,4.7-51.3,1.2c-2.7-0.5-6.7-1.9-7.9-0.4c-1.4,1.8,1.2,5.1,2.1,7.7c0.9,2.5,1.6,4.9,5,5.4
		C114.3,191.6,121.6,192.9,127,192.7z M149.8,135c-5.5-10.5-9.9-20.4-16.2-29.3c-1.4-1.9-2.3-2.4-4-0.1c-6.5,8.6-10.5,18.5-15.5,28
		c-0.9,1.8,0.7,1.8,1.9,1.9c2.1,0.1,4.3-0.3,6.3,0.2C131.4,137.6,140.2,135.6,149.8,135z M150.4,204.8c-12.8,1.8-24.4,2.1-36.6,0.6
		c4.6,6.2,9.8,10.8,15.3,15.1c1.6,1.3,3,1.3,4.4,0.3C139.7,216.6,144.2,210.7,150.4,204.8z M162.8,82.6c-1.7-8.3-4.3-15.8-10.2-22.8
		c0.9,8,2.1,15,1.1,22.2C156.9,82.2,159.8,82.4,162.8,82.6z"/>
	<path class="st1" d="M216.7,162c-17,2.9-31.1-2.9-42.6-15.2c-8.8-9.4-14-21-19.6-32.4c-3-6.3-6.6-12.2-10.6-17.9
		c0.1-0.3,0.2-0.5,0.3-0.8c1.3,0.1,2.6,0.1,3.9,0.2c0.3,1.2,1.4,0.9,2.2,1.1c15.2,3.4,30.3,7,44.1,14.7c8.4,4.7,15.8,10.5,20.6,19.1
		C220.6,140.8,220,151.3,216.7,162z"/>
	<path class="st1" d="M119.2,96.3c-7.5,10.5-12.6,22.5-18.7,33.8c-7.2,13.4-16.4,25-31.5,30c-7.5,2.5-15.2,3.9-23,1.7
		c-0.7-4.6-1.8-9.1-1.9-13.7c-0.2-14.4,7.1-24.9,18.6-32.8c13.4-9.2,28.8-13.6,44.4-17.2c2.7-0.6,5.6-0.5,8-2.3
		c1.3-0.1,2.6-0.1,3.9-0.2C119,95.8,119.1,96.1,119.2,96.3z"/>
	<path class="st2" d="M118.9,166c-7.9-0.4-15.5-2.6-23.5-5.4c3.9-3.9,7.1-8,10.1-12.3c0.8-1.1,2.1-0.5,3.1-0.3
		c15.4,3,30.8,2.4,46.1-0.5c1.2-0.2,2.4-0.6,3.3,0.8c2.7,4.4,6.5,8,10.6,11.9c-9.2,3.1-18.8,4.9-27.9,5.8
		C133.4,166,126.1,166,118.9,166z"/>
	<path class="st3" d="M119.5,95.6c-2.4,1.8-9.7,1.9-12.4,2.5c-15.7,3.6-31,8-44.4,17.2c-11.5,7.9-18.8,18.3-18.6,32.8
		c0.1,4.6,1.2,9.1,1.9,13.7c-10.5-1.8-16.1-12-12.9-23.7c3.5-12.6,12.4-20.9,23.1-27.5c14.8-9.1,31.3-13,48.4-14.5
		C108.1,95.8,116,94.4,119.5,95.6z"/>
	<path class="st3" d="M216.7,162c3.3-10.7,3.9-21.2-1.8-31.4c-4.8-8.6-12.2-14.4-20.6-19.1c-13.7-7.7-28.9-11.3-44.1-14.7
		c-0.8-0.2-6.3,0-6.6-1.2c28,0,57.5,4.7,78.3,27.7c6.4,6.9,10.4,15.2,8.7,25.1C229.4,155.6,224.1,160.7,216.7,162z"/>
	<path class="st2" d="M127,192.7c-5.4,0.2-12.7-1.1-20-2.3c-3.3-0.6-4.1-3-5-5.4c-0.9-2.6-3.5-5.9-2.1-7.7c1.2-1.5,5.2-0.2,7.9,0.4
		c17.2,3.5,34.2,2.3,51.3-1.2c1.4-0.3,3-1,4.1,0.1c1.2,1.2-0.1,2.7-0.3,4c-1.2,6.5-4.8,9.8-11.8,10.4
		C143.7,191.5,136.4,192.7,127,192.7z"/>
	<path class="st2" d="M149.8,135c-9.6,0.5-18.4,2.6-27.5,0.5c-2-0.5-4.2-0.1-6.3-0.2c-1.2,0-2.8-0.1-1.9-1.9c5-9.4,9-19.4,15.5-28
		c1.7-2.2,2.7-1.8,4,0.1C140,114.6,144.3,124.5,149.8,135z"/>
	<path class="st2" d="M150.4,204.8c-6.2,6-10.7,11.8-16.9,16c-1.4,1-2.8,0.9-4.4-0.3c-5.5-4.4-10.7-9-15.3-15.1
		C126,206.9,137.6,206.6,150.4,204.8z"/>
	<path class="st1" d="M162.8,82.6c-3.1-0.2-5.9-0.4-9.1-0.6c1-7.2-0.2-14.2-1.1-22.2C158.5,66.8,161.1,74.3,162.8,82.6z"/>
	<path class="st3" d="M119.2,96.3c-0.1-0.3-0.2-0.5-0.2-0.8c0.2,0,0.4,0,0.5,0.1C119.4,95.9,119.3,96.1,119.2,96.3z"/>
	<path class="st3" d="M144.3,95.6c-0.1,0.3-0.2,0.5-0.3,0.8c-0.1-0.2-0.2-0.5-0.3-0.7C143.9,95.6,144.1,95.6,144.3,95.6z"/>
</g>
<path class="st4" d="M108.9,39.2c0.1,0.1,0.1,0.1,0,0.2C108.9,39.3,108.9,39.2,108.9,39.2z"/>
<g>
	<path class="st5" d="M99,18.7c0-0.2,0.1-0.4,0.1-0.6c0.2-0.1,0.3-0.2,0.2-0.5c0.4-0.9,1.1-1.5,1.9-2c0.7-0.4,1.4-0.7,2.1-0.9
		c0.6-0.2,1.3-0.1,1.9-0.1c0.9,0,1.7,0.3,2.5,0.4c0.1,0,0.1,0.1,0.2,0.1c0,0.1,0,0.2,0.1,0.1c0.1,0,0.2,0.1,0.3,0.1
		c0.1,0.2,0.3,0.3,0.4,0.4c0.5,0.4,0.6,0.3,0.9-0.3c0.3-0.6,0.6-1.1,0.9-1.7c0.6-1.1,1.1-2.3,1.5-3.5c0.5-1.5,0.9-3.1,1.7-4.5
		c0.1-0.1,0.2-0.2,0.2-0.2c0.1,0,0.2,0,0.1-0.2c0,0,0.1-0.1,0.1-0.1c0.1,0.1,0.2,0,0.2-0.1c0.5-0.4,1-0.7,1.6-0.6
		c0.7,0,1.3-0.1,1.9-0.3c0.2,0,0.4,0,0.6,0c0.8,0.1,1.5-0.2,2.2-0.4c0.6-0.2,1.3-0.4,1.7-1c0.1-0.1,0.2-0.2,0.2-0.2
		c0.1,0.1,0.1,0,0.2-0.1c0.7-0.6,1.5-1.3,2.4-1.7c0.2-0.1,0.2-0.1,0.2-0.3c1.1-0.6,2.2-0.4,3.4-0.3c0.5,0,0.9,0.4,1.4,0.7
		c1,0.6,2,1.2,2.8,2c1.1,1,2.1,2.1,2.9,3.3c1.3,2,2.7,3.9,4,5.9c1.1,1.7,2.2,3.5,3.2,5.3c1,1.9,2,3.7,2.9,5.6c0.5,1,0.9,2.1,1.4,3.1
		c0.1,0.3,0.3,0.3,0.5,0.3c1.3,0,2.7-0.2,4,0.3c0.9,0.3,1.9,1.5,1.9,2.4c0.1,1.7,0.1,3.4-0.4,5c-0.1,0.5-0.3,1.1-0.5,1.6
		c-0.2,0.7-0.2,1.4-0.3,2c0,0.2,0.1,0.4,0.3,0.5c0.1,0.1,0.1,0.1,0.2,0c0.7,0.3,0.9,0.9,1.2,1.5c0.1,0.2,0.2,0.4,0.2,0.6
		c0,0.2-0.1,0.4,0.1,0.6c0.1,1,0.1,2,0,3c0,0,0,0,0,0c0,0,0,0,0,0c0,0.3-0.2,0.6,0,0.8c0,0.2-0.1,0.4-0.1,0.6c0,0,0,0-0.1,0
		c0,0,0,0,0,0c0,0.2-0.1,0.3-0.1,0.5c0,0-0.1,0-0.1,0c0,0,0,0.1,0,0.1c0,0.1-0.1,0.1-0.1,0.2c0,0-0.1,0-0.1,0c0,0,0,0.1,0,0.1
		c-0.1,0.1-0.1,0.2-0.2,0.3c-0.1,0-0.2,0-0.1,0.2c0,0.1-0.1,0.1-0.1,0.2c-0.1,0-0.2,0-0.1,0.2c-0.1,0.1-0.1,0.2-0.2,0.2
		c0,0-0.1,0-0.1,0c0,0-0.1,0.1,0,0.1c-0.1,0.1-0.2,0.1-0.2,0.2c-0.1,0-0.2,0-0.2,0.2c-0.1,0.1-0.1,0.2-0.2,0.2c0,0-0.1,0-0.1,0
		c0,0-0.1,0.1,0,0.1c-0.2,0.2-0.4,0.4-0.7,0.5c-0.1,0-0.2,0-0.2,0.1c-0.1,0.1-0.2,0.1-0.3,0.2c-0.1-0.1-0.2,0-0.2,0.1
		c-0.2,0.1-0.4,0.2-0.6,0.3c-0.1-0.1-0.2,0-0.2,0.1c-0.2,0.1-0.3,0.1-0.5,0.2c-0.2-0.1-0.4,0-0.5,0.2c-0.1,0-0.3,0.1-0.4,0.1
		c-0.3,0-0.6,0-0.9,0.2c-0.1,0-0.2,0-0.3,0.1c0-0.1-0.1-0.1-0.1,0c-0.4,0-0.7,0.1-1.1,0.1c-0.3-0.3-0.6,0-0.8,0.1
		c-0.2,0.2-0.5,0.1-0.8,0.1c-2,0.2-4,0.3-6.1,0.4c-2.3,0.1-4.5,0-6.8,0c-2.7,0-5.3,0-8-0.2c-2.8-0.1-5.6-0.2-8.3-0.7
		c-1.5-0.2-2.9-0.6-4.3-1.2c-2.1-0.9-2.9-2.5-3-4.6c-0.1-1.8,0.2-3.6,0.6-5.4c0.1-0.4,0-0.8,0.1-1.2c0-0.3-0.2-0.5-0.4-0.7
		c-0.5-0.4-0.6-0.8-0.6-1.4c0-1.4,0.1-2.9,0.2-4.3c0-1.1,0.7-1.7,1.5-2.3c0.5-0.4,1-0.4,1.6-0.4c0.4,0,0.9,0,1.3,0
		c0.5,0.1,0.8-0.2,0.9-0.7c0.5-1.9,1.1-3.7,1.6-5.6c0.5-1.8,0.9-3.7,1.1-5.6c0-0.1,0.1-0.3-0.1-0.4c-0.1-0.1-0.2,0-0.4,0.1
		c-1.3,0.8-2.6,1.6-3.9,2.5c-0.3,0.2-0.4,0.5-0.3,0.8c0.4,1.3,0.3,2.6,0.3,3.9c0,0.9-0.3,1.6-0.9,2.2c-0.7,0.7-1.5,1.3-2.3,1.8
		c-0.2,0.1-0.3,0.1-0.5,0.1c-1.2,0.1-2.4,0.1-3.5,0c-1.3-0.1-2.4-0.7-3.4-1.6c-0.9-0.9-1.7-1.7-2.3-2.8c0-0.2,0-0.4-0.2-0.5
		c0-0.3-0.1-0.5-0.1-0.8c0.1,0,0.1,0,0.1-0.1c0-0.1,0-0.1-0.1-0.1C98.9,20.8,98.9,19.8,99,18.7C99,18.8,99.1,18.8,99,18.7
		C99.1,18.7,99,18.7,99,18.7z M116.3,31.2c-0.2-0.2-0.5-0.1-0.7-0.2c0-0.2-0.1-0.3-0.2-0.1c-0.3-0.1-0.6-0.1-0.9-0.2
		c-0.1-0.2-0.3-0.2-0.5-0.2c-0.5-0.1-1,0-1.5-0.2c0,0,0,0,0,0c0,0,0,0,0,0c-0.1,0-0.3-0.1-0.4,0.1c-0.3,0.1-0.6,0.1-0.9,0.2
		c-0.7,0-1.2,0.7-1.1,1.3c0,0.4,0,0.9-0.1,1.3c-0.2,0.5-0.4,1.9-0.2,2.4c0,0.1,0.1,0.3,0.2,0.3c0.1,0,0.4,0,0.4-0.2
		c0.2-0.2,0.4-0.2,0.7,0c-0.1,0.1-0.1,0.1,0,0.2c0,0.1,0,0.2-0.1,0.4c0,0,0,0,0,0c0,0,0,0,0,0c0,0.2-0.1,0.4-0.1,0.7
		c0,0.8,0,1.6,0,2.4c0,0.6,0,1.2-0.2,1.7c-0.3,0.8-0.3,1.6-0.5,2.5c-0.2,0.9,0.2,1.8,0.6,2.6c0.5,1,1.3,1.5,2.4,1.8
		c0.4,0.1,0.9,0.2,1.4,0.4c0.6,0.3,1.3,0.3,1.9,0.5c0.2,0.1,0.4,0.1,0.5,0c0.2,0,0.4,0,0.6,0c0,0,0,0,0,0c0,0,0,0,0,0
		c0.2,0.1,0.4,0.2,0.7,0.2c1.7,0,3.4,0.3,5.1,0.4c1,0,2,0.1,3,0c0.7,0,1.4,0,2.1,0c0,0,0,0,0,0c0,0,0,0,0,0c0.2,0.1,0.4,0.1,0.6,0.1
		c1.4,0,2.9,0,4.3,0.1c1.9,0.1,3.8,0.1,5.7-0.1c0.2,0,0.3,0,0.4-0.2c0.6-0.1,1.2,0,1.8,0c0.1,0.1,0.3,0.1,0.4,0.1
		c1,0,1.9-0.1,2.8-0.3c1.3-0.2,2.6-0.4,3.9-0.7c0.9-0.2,1.8-0.5,2.6-1c1.3-0.9,2.1-2,2.3-3.5c0.1-1.1,0.1-2.3-0.3-3.3
		c-0.1-0.3-0.3-0.7-0.6-0.7c-0.3,0-0.2,0.4-0.3,0.6c-0.1,0.1-0.1,0.3-0.3,0.3c-0.2,0-0.2-0.2-0.2-0.3c-0.1-0.5-0.1-0.5-0.4-0.7
		c0-0.2,0-0.3,0-0.5c0.1-0.6,0-1.3,0-1.9c0-0.5,0.1-1,0-1.5c0-0.2,0-0.4,0.1-0.7c0.3,0,0.3-0.1,0.2-0.3c0.2-0.4,0.3-0.9,0.4-1.3
		c0.2-1,0.5-2.1,0.5-3.2c0-1.5-0.9-1.9-2-2.1c-1.4-0.2-2.8,0.2-4.1,0.7c-1.4,0.5-2.8,1.3-4.2,1.9c-1.5,0.6-2.9,1.3-4.4,1.8
		c-1,0.3-2,0.6-3,0.9c-1.1,0.2-2.1,0.5-3.3,0.5c-0.3,0-0.6,0-1,0c-0.9,0-1.8,0.3-2.8,0.2c-1-0.1-2.1-0.2-3.1-0.3
		c-0.3,0-0.6,0-0.8-0.1c-0.7-0.3-1.4-0.3-2.1-0.5c-0.9-0.2-1.7-0.5-2.5-0.8c-0.8-0.3-1.6-0.7-2.5-1c0.1,0,0-0.1,0-0.1
		C116.4,31.2,116.4,31.2,116.3,31.2z M128,32.3c1.4-0.1,2.7-0.1,4-0.3c1.2-0.2,2.4-0.5,3.6-0.9c1.1-0.4,2.2-0.8,3.3-1.3
		c0.8-0.3,1.5-0.7,2.2-1.1c1.3-0.6,2.7-1.2,4-1.7c0.2-0.1,0.3-0.2,0.1-0.4c-0.4-0.5-0.7-1.1-1.1-1.6c-0.8-1.2-1.5-2.5-2.2-3.8
		c-1-1.8-2.2-3.6-3.1-5.5c-0.4-0.7-0.8-1.4-1.2-2.1c-0.8-1.4-1.6-2.7-2.5-4c-0.8-1.1-1.7-2.2-2.5-3.4c-1.3-1.8-2.8-3.3-4.8-4.3
		c-0.5-0.3-1.1-0.4-1.7-0.2c-0.6,0.2-1.1,0.5-1.5,1c-0.8,0.8-1.5,1.7-2.6,2.3c-0.9,0.5-1.9,0.9-3,0.8c-0.8,0-1.5-0.2-2.3-0.3
		c-0.8-0.1-1.5,0.2-2,1c-0.7,1.1-0.9,2.4-1.3,3.6c-0.4,1.4-1.1,2.7-1.9,3.9c-0.5,0.7-1.1,1.4-1.6,2.1c-0.1,0.2-0.3,0.4-0.1,0.5
		c0.6,0.5,1.1,1.2,1.5,1.9c0.1,0.2,0.2,0.2,0.4,0c1.1-1.7,2.8-2.4,4.6-3c0.3-0.1,0.4-0.2,0.5-0.5c0.2-0.7,0.5-1.4,0.8-2.1
		c0.6-1.3,1.4-2.4,2.4-3.4c1.1-1.1,2.3-1.8,3.9-1.7c0.6,0,1.2,0.3,1.8,0.6c0.7,0.4,1.4,0.5,2.1,1c0.1,0.1,0.2,0.2,0.4,0.1
		c0.2-0.1,0.2-0.3,0.1-0.5c-0.1-0.2-0.1-0.5-0.3-0.7c-0.1-0.1-0.1-0.3,0-0.4c0.1-0.1,0.2,0,0.3,0c0.2,0.2,0.6,1.3,0.5,1.6
		c-0.2,0.6-1,1-1.6,0.9c-0.9-0.1-1.7-0.6-2.6-0.8c-1.1-0.3-2.1-0.3-3.1,0.5c-0.8,0.6-1.2,1.4-1.7,2.3c-0.4,0.7-0.7,1.5-0.8,2.3
		c-0.1,0.7-0.2,1.5-0.3,2.2c-0.2,1.8-0.6,3.6-1,5.4c-0.3,1.4-0.8,2.8-1.5,4.1c-0.3,0.6-0.7,1.3-1.1,1.9c-0.3,0.4-0.1,0.7,0.2,0.8
		c0.9,0.1,1.7,0.5,2.4,0.8c1.5,0.6,3,1.2,4.6,1.7C124.4,32,126.2,32.2,128,32.3z M111.2,22.4c0.2-1.3-0.4-2.4-0.4-3.7
		c0-0.1,0-0.2-0.1-0.2c-0.4-0.5-0.8-1.1-1.4-1.4c-0.9-0.5-1.7-1.1-2.7-1.4c-0.7-0.2-1.4-0.2-2.1-0.2c-0.8,0-1.5,0.4-2.3,0.8
		c-0.6,0.3-1.2,0.7-1.7,1.3c-0.4,0.6-0.5,1.2-0.7,1.8c-0.3,1.1,0,2.1,0.3,3.1c0.4,1.2,1.4,2,2.2,2.9c0.5,0.5,1.1,0.9,1.7,1.1
		c0.8,0.3,1.6,0.3,2.4,0.5c0.2,0,0.4,0,0.6,0c0.8-0.2,1.6-0.4,2.3-0.9c1.1-0.9,2.2-1.7,1.9-3.4C111.2,22.6,111.2,22.5,111.2,22.4z"
		/>
	<path class="st6" d="M111.1,36.1c0-0.1,0-0.2,0.1-0.4c0.1-0.1,0.1-0.1,0-0.2c-0.2-0.2-0.4-0.2-0.7,0c-0.3,0.1-0.4,0-0.4-0.3
		c0-0.3,0-0.6,0-0.9c0-0.5,0.2-0.9,0.1-1.3c0.1-0.4,0.1-0.9,0.1-1.3c0.1-0.5,0.4-0.9,0.9-1.1c0.1,0,0.2-0.1,0.2-0.2
		c0.3-0.1,0.6-0.1,0.9-0.2c0.1,0.1,0.3,0.1,0.4,0c0.5,0.2,1,0,1.5,0.2c0.1,0.1,0.3,0.3,0.5,0.2c0.3,0.1,0.6,0.1,0.9,0.2
		c0,0.1,0.1,0.2,0.2,0.1c0.2,0.1,0.5,0,0.7,0.2c0,0.1,0.1,0.1,0.1,0.1c0.8,0.3,1.6,0.7,2.5,1c0.8,0.3,1.7,0.6,2.5,0.8
		c0.7,0.2,1.4,0.2,2.1,0.5c0.3,0.1,0.6,0.1,0.8,0.1c1.1,0,2.1,0.2,3.1,0.3c0.9,0.1,1.8-0.1,2.8-0.2c0.3,0,0.6-0.1,1,0
		c1.1,0.1,2.2-0.2,3.3-0.5c1-0.2,2-0.5,3-0.9c1.5-0.5,2.9-1.2,4.4-1.8c1.4-0.6,2.8-1.3,4.2-1.9c1.3-0.5,2.7-1,4.1-0.7
		c1.1,0.2,2,0.7,2,2.1c0,1.1-0.2,2.2-0.5,3.2c-0.1,0.4-0.2,0.9-0.4,1.3c-0.2,0.1-0.2,0.2-0.2,0.3c0,0.2,0,0.4-0.1,0.7
		c-0.2,1.1-0.3,2.3,0,3.5c0,0.2,0,0.3,0,0.5c-0.1,0.4,0.3,0.6,0.3,0.9c0,0.2,0.1,0.3,0.3,0.3c0.2,0,0.3-0.1,0.4-0.3
		c0-0.1,0-0.2,0.1-0.3c0-0.1,0-0.2,0.2-0.3c0.1,0,0.1,0.1,0.2,0.2c0.2,0.3,0.2,0.7,0.4,1c0.5,1.3,0.2,2.7-0.2,3.9
		c-0.4,1.2-1.5,1.9-2.6,2.5c-0.7,0.3-1.3,0.5-2.1,0.7c-1.2,0.3-2.4,0.5-3.6,0.6c-1.1,0.1-2.2,0.2-3.3,0.4c-0.6,0-1.2,0-1.8,0
		c-0.5,0-1-0.1-1.5,0c-1.6,0.2-3.2,0.1-4.9,0c-1.5-0.1-3.1,0-4.6,0c-0.7,0-1.4,0-2.1,0c-1.2-0.1-2.3,0-3.5-0.2
		c-1.2-0.2-2.5-0.1-3.7-0.2c-0.5,0-1-0.3-1.5-0.2c-0.2,0-0.4,0-0.6,0c-1.3-0.4-2.6-0.7-3.9-1.1c-0.5-0.2-1-0.3-1.4-0.6
		c-0.3-0.3-0.5-0.7-0.7-1c-0.5-0.7-0.6-1.5-0.6-2.3c0-1.3,0.4-2.5,0.6-3.7C111.1,38.6,111,37.3,111.1,36.1z"/>
	<path class="st4" d="M128,32.3c-1.8-0.1-3.7-0.3-5.5-0.8c-1.6-0.5-3.1-1.1-4.6-1.7c-0.8-0.3-1.6-0.7-2.4-0.8
		c-0.4-0.1-0.5-0.4-0.2-0.8c0.4-0.6,0.7-1.2,1.1-1.9c0.7-1.3,1.2-2.7,1.5-4.1c0.4-1.8,0.8-3.6,1-5.4c0.1-0.7,0.2-1.5,0.3-2.2
		c0.2-0.8,0.5-1.6,0.8-2.3c0.4-0.8,0.9-1.7,1.7-2.3c1-0.8,2-0.7,3.1-0.5c0.9,0.2,1.7,0.7,2.6,0.8c0.6,0.1,1.4-0.3,1.6-0.9
		c0.1-0.3-0.3-1.4-0.5-1.6c-0.1-0.1-0.2-0.1-0.3,0c-0.1,0.1-0.1,0.3,0,0.4c0.2,0.2,0.2,0.5,0.3,0.7c0.1,0.2,0,0.3-0.1,0.5
		c-0.2,0.2-0.3,0-0.4-0.1c-0.6-0.4-1.4-0.6-2.1-1c-0.6-0.3-1.1-0.5-1.8-0.6c-1.6-0.1-2.8,0.6-3.9,1.7c-1,1-1.8,2.1-2.4,3.4
		c-0.3,0.7-0.5,1.4-0.8,2.1c-0.1,0.2-0.2,0.4-0.5,0.5c-1.8,0.6-3.6,1.2-4.6,3c-0.1,0.2-0.2,0.2-0.4,0c-0.4-0.7-0.9-1.4-1.5-1.9
		c-0.2-0.2-0.1-0.4,0.1-0.5c0.5-0.7,1.1-1.4,1.6-2.1c0.8-1.2,1.4-2.5,1.9-3.9c0.4-1.2,0.6-2.5,1.3-3.6c0.4-0.7,1.1-1.1,2-1
		c0.8,0.1,1.5,0.3,2.3,0.3c1.1,0.1,2.1-0.3,3-0.8c1-0.6,1.8-1.4,2.6-2.3c0.4-0.5,0.9-0.8,1.5-1c0.6-0.2,1.2,0,1.7,0.2
		c2,1,3.5,2.5,4.8,4.3c0.8,1.1,1.7,2.2,2.5,3.4c0.9,1.3,1.7,2.7,2.5,4c0.4,0.7,0.8,1.4,1.2,2.1c0.9,1.9,2.1,3.7,3.1,5.5
		c0.7,1.3,1.4,2.6,2.2,3.8c0.3,0.5,0.7,1.1,1.1,1.6c0.2,0.2,0.2,0.3-0.1,0.4c-1.3,0.6-2.7,1.1-4,1.7c-0.8,0.3-1.5,0.7-2.2,1.1
		c-1.1,0.5-2.2,0.9-3.3,1.3c-1.2,0.4-2.4,0.6-3.6,0.9C130.8,32.2,129.4,32.2,128,32.3z"/>
	<path class="st6" d="M111.2,22.5c0.3,1.9-0.9,2.8-2.1,3.7c-0.7,0.5-1.5,0.6-2.3,0.8c-0.4,0.1-0.8-0.2-1.1-0.2
		c-1.3,0-2.4-0.6-3.3-1.5c-0.8-0.9-1.8-1.7-2.1-2.9c-0.3-1-0.3-2-0.2-3.1c0.1-0.7,0.3-1.3,0.7-1.8c0.5-0.7,1.1-1,1.8-1.4
		c0.5-0.3,1-0.5,1.5-0.6c0.7-0.2,1.3-0.2,2,0c0.6,0.2,1.2,0.3,1.8,0.6c0.1,0,0.2,0.1,0.3,0.1c0.7,0.7,1.6,1.1,2.2,2
		c0.3,0.4,0.5,0.8,0.6,1.3C110.9,20.5,111.4,21.5,111.2,22.5z"/>
</g>
</svg>
