<?xml version="1.0" encoding="utf-8"?>
<svg viewBox="0 0 257.25 237.75" style="enable-background:new 0 0 257.25 237.75;" xmlns="http://www.w3.org/2000/svg">
  <defs>
    <style type="text/css">
	.st0{fill:#FDFDFD;}
	.st1{fill:#030303;}
	.st2{fill:#F9AD14;}
	.st3{fill:#BDBDBD;}
</style>
  </defs>
  <g>
    <path class="st1" d="M257.19,136.49c-1.35,0.34-1,1.61-1.21,2.45c-4.04,16.43-16.5,26.95-33.53,28.29 c-13.57,1.06-26.25-1.96-38.55-8.39c-2.61,10.83-5.77,21.27-10.68,31.1c-9.54,19.12-23.17,34.47-41.53,45.56 c-1.98,1.2-3.38,1.22-5.35,0.01c-27.59-16.96-43.67-41.96-51.26-72.95c-0.21-0.85-0.4-1.7-0.62-2.54 c-0.06-0.24-0.21-0.45-0.49-1.06c-7.72,4-15.89,6.62-24.5,8.03c-20.18,3.3-38.21-4.9-45.21-21.27c-6.3-14.72-2.47-28.4,5.68-41.19 C21.11,86.99,37.87,76.8,56.88,69.77c8.68-3.21,17.64-5.41,26.79-6.75c1.91-0.28,2.74-0.75,2.84-2.91 c0.52-11.05,4.7-20.59,12.54-28.4c1.51-1.5,1.48-2.34,0.15-3.88c-4.42-5.17-9.38-9.68-15.27-13.09c-6.19-3.59-6.38-9.89-0.37-13.85 c0.23-0.15,0.31-0.54,0.46-0.81c2,0,4,0,6,0c8.85,5.62,17,12.04,23.26,20.57c1.03,1.41,1.99,0.92,3.22,0.56 c8.34-2.45,16.7-2.48,25.03,0.01c1.23,0.37,2.2,0.82,3.22-0.58c6.24-8.54,14.39-14.94,23.23-20.55c2,0,4,0,6,0 c-0.26,0.69,0.38,0.74,0.72,1.01c5.89,4.66,5.51,10.09-0.89,13.82c-5.77,3.35-10.6,7.81-14.94,12.86c-1.27,1.48-1.5,2.34,0.05,3.89 c7.93,7.92,12.01,17.63,12.6,28.77c0.11,2.13,1.16,2.31,2.78,2.56c9.13,1.41,18.09,3.54,26.75,6.76 c20.72,7.71,38.51,19.11,49.64,39.09c3.16,5.67,4.25,11.98,6.51,17.91C257.19,130,257.19,133.24,257.19,136.49z M139.14,154.69 c10.29-0.99,20.43-2.68,30.76-6.06c-4.52-4.22-8.13-8.49-11.15-13.24c-0.95-1.49-2.29-1.09-3.67-0.84 c-17.32,3.14-34.67,3.81-52.07,0.55c-1.16-0.22-2.66-0.94-3.52,0.28c-3.34,4.67-6.94,9.12-11.38,13.4 c9.07,3.04,17.58,5.5,26.56,5.91C122.82,155.61,130.98,155.65,139.14,154.69z M32.31,150.71c8.89,2.45,17.56,0.92,26.01-1.9 c17.11-5.7,27.41-18.7,35.57-33.86c6.89-12.8,12.59-26.26,21.11-38.17c0.11-0.27,0.22-0.54,0.33-0.81 c-0.2-0.02-0.41-0.04-0.61-0.06c-1.45,0.07-2.9,0.14-4.36,0.21c-4.01-1.4-7.93,0.11-11.86,0.46c-19.33,1.72-37.95,6.06-54.67,16.39 c-12.04,7.44-22.14,16.75-26.07,31.01C14.1,137.22,20.49,148.72,32.31,150.71z M147.64,76.11c-1.45-0.06-2.9-0.12-4.35-0.19 c-0.21,0.02-0.41,0.03-0.62,0.05c0.11,0.28,0.21,0.55,0.32,0.83c4.51,6.43,8.51,13.18,11.95,20.24 c6.27,12.87,12.2,26.02,22.07,36.62c12.95,13.9,28.81,20.44,48.03,17.21c8.35-1.41,14.38-7.18,15.77-15.31 c1.91-11.2-2.57-20.52-9.79-28.34C208.54,82.88,178.96,77.05,147.64,76.11z M123.75,185.52c10.69,0.02,18.94-1.27,27.25-2.02 c7.87-0.71,11.89-4.39,13.27-11.76c0.28-1.52,1.79-3.14,0.38-4.51c-1.26-1.23-3.03-0.45-4.63-0.11c-19.2,4-38.47,5.28-57.86,1.38 c-3.07-0.62-7.61-2.15-8.94-0.42c-1.56,2.03,1.36,5.74,2.41,8.69c0.98,2.79,1.83,5.48,5.59,6.13 C109.46,184.32,117.66,185.8,123.75,185.52z M149.58,120.44c-6.23-11.82-11.12-23.06-18.24-33.09c-1.53-2.16-2.62-2.68-4.53-0.16 c-7.34,9.69-11.85,20.92-17.46,31.55c-1.06,2.01,0.79,2.08,2.14,2.12c2.36,0.06,4.81-0.34,7.07,0.17 C128.77,123.34,138.73,121.05,149.58,120.44z M150.2,199.21c-14.47,2.01-27.58,2.33-41.33,0.63c5.17,6.96,11.04,12.19,17.29,17.1 c1.84,1.45,3.35,1.49,4.97,0.38C138.08,212.55,143.24,205.93,150.2,199.21z M164.22,61.29c-1.9-9.36-4.82-17.8-11.49-25.71 c1.01,9.02,2.34,16.97,1.2,25.05C157.58,60.87,160.76,61.07,164.22,61.29z"/>
    <path class="st0" d="M225.04,150.87c-19.22,3.23-35.08-3.31-48.03-17.21c-9.88-10.6-15.81-23.75-22.07-36.62 c-3.44-7.06-7.43-13.81-11.95-20.24c0.1-0.29,0.2-0.58,0.3-0.87c1.45,0.06,2.9,0.12,4.35,0.19c0.39,1.3,1.55,1,2.47,1.2 c17.16,3.79,34.22,7.85,49.73,16.6c9.46,5.33,17.84,11.82,23.21,21.53C229.41,126.92,228.73,138.81,225.04,150.87z"/>
    <path class="st0" d="M114.99,76.78c-8.51,11.9-14.22,25.36-21.11,38.17c-8.16,15.16-18.46,28.17-35.57,33.86 c-8.46,2.82-17.12,4.35-26.01,1.9c-0.74-5.16-2.04-10.31-2.12-15.48c-0.26-16.31,8-28.08,20.95-36.99 c15.17-10.44,32.5-15.39,50.16-19.47c3.05-0.7,6.37-0.61,9.05-2.64c1.45-0.07,2.9-0.14,4.36-0.21 C114.8,76.21,114.9,76.49,114.99,76.78z"/>
    <path class="st2" d="M114.67,155.38c-8.97-0.42-17.49-2.97-26.56-6.11c4.44-4.43,8.04-9.03,11.38-13.86 c0.87-1.25,2.37-0.51,3.52-0.29c17.4,3.37,34.75,2.67,52.07-0.57c1.38-0.26,2.72-0.67,3.67,0.87c3.02,4.92,7.39,9.02,11.92,13.39 c-10.34,3.5-21.24,5.56-31.53,6.59C130.99,155.39,122.83,155.38,114.67,155.38z"/>
    <path class="st3" d="M115.32,75.97c-2.67,2.03-10.97,2.09-14.02,2.79c-17.67,4.08-34.99,9.03-50.16,19.47 c-12.96,8.91-21.21,20.68-20.95,36.99c0.08,5.17,1.38,10.32,2.12,15.48c-11.81-1.99-18.21-13.49-14.55-26.73 c3.93-14.25,14.03-23.57,26.07-31.01C60.55,82.64,79.17,78.3,98.49,76.58C102.42,76.23,111.32,74.57,115.32,75.97z"/>
    <path class="st3" d="M225.04,150.87c3.69-12.05,4.37-23.95-1.98-35.43c-5.37-9.71-13.75-16.2-23.21-21.53 c-15.51-8.74-32.58-12.8-49.73-16.6c-0.92-0.2-7.06-0.04-7.45-1.34c31.62-0.05,64.87,5.36,88.35,31.25 c7.22,7.82,11.7,17.14,9.79,28.34C239.42,143.69,233.39,149.45,225.04,150.87z"/>
    <path class="st2" d="M123.75,185.52c-6.09,0.28-14.29-1.2-22.52-2.62c-3.76-0.65-4.61-3.34-5.59-6.13 c-1.04-2.95-3.97-6.66-2.41-8.69c1.33-1.73,5.87-0.2,8.94,0.42c19.39,3.91,38.66,2.63,57.86-1.38c1.6-0.33,3.36-1.11,4.63,0.11 c1.41,1.38-0.1,3-0.38,4.51c-1.38,7.37-5.4,11.05-13.27,11.76C142.69,184.25,134.44,185.54,123.75,185.52z"/>
    <path class="st2" d="M149.58,120.44c-10.85,0.61-20.82,2.9-31.02,0.6c-2.25-0.51-4.71-0.11-7.07-0.17 c-1.35-0.04-3.2-0.11-2.14-2.12c5.61-10.63,10.12-21.86,17.46-31.55c1.91-2.52,3-2,4.53,0.16 C138.47,97.38,143.36,108.62,149.58,120.44z"/>
    <path class="st2" d="M150.2,199.21c-6.96,6.72-12.12,13.34-19.08,18.11c-1.62,1.11-3.13,1.07-4.97-0.38 c-6.25-4.92-12.12-10.15-17.29-17.1C122.62,201.54,135.73,201.22,150.2,199.21z"/>
    <path class="st0" d="M164.22,61.29c-3.46-0.22-6.63-0.43-10.3-0.66c1.14-8.08-0.19-16.03-1.2-25.05 C159.4,43.49,162.32,51.93,164.22,61.29z"/>
    <path class="st3" d="M114.99,76.78c-0.09-0.29-0.19-0.58-0.28-0.87c0.2,0.02,0.41,0.04,0.61,0.06 C115.21,76.24,115.1,76.51,114.99,76.78z"/>
    <path class="st3" d="M143.29,75.92c-0.1,0.29-0.2,0.58-0.3,0.87c-0.11-0.28-0.21-0.55-0.32-0.83 C142.88,75.95,143.08,75.94,143.29,75.92z"/>
  </g>
</svg>